name C:\Users\u0150099\Documents\master_thesis\3dpredictsim\Results\debug\Fal_s1_mtjc1_sc_cspx10_oy2_MTc2_MTPm_k1_d01_MTJm_nl_MG_exp5_table_d01_PF_Gefen2002_ls146_ig21.mot
datacolumns 128
datarows 4
range 0.00000000 0.03115480
endheader
time	pelvis_tilt	pelvis_list	pelvis_rotation	pelvis_tx	pelvis_ty	pelvis_tz	hip_flexion_l	hip_adduction_l	hip_rotation_l	hip_flexion_r	hip_adduction_r	hip_rotation_r	knee_angle_l	knee_angle_r	ankle_angle_l	ankle_angle_r	subtalar_angle_l	subtalar_angle_r	mtj_angle_l	mtj_angle_r	mtp_angle_l	mtp_angle_r	lumbar_extension	lumbar_bending	lumbar_rotation	arm_flex_l	arm_add_l	arm_rot_l	arm_flex_r	arm_add_r	arm_rot_r	elbow_flex_l	elbow_flex_r	pro_sup_l	pro_sup_r	glut_med1_l/activation	glut_med2_l/activation	glut_med3_l/activation	glut_min1_l/activation	glut_min2_l/activation	glut_min3_l/activation	semimem_l/activation	semiten_l/activation	bifemlh_l/activation	bifemsh_l/activation	sar_l/activation	add_long_l/activation	add_brev_l/activation	add_mag1_l/activation	add_mag2_l/activation	add_mag3_l/activation	tfl_l/activation	pect_l/activation	grac_l/activation	glut_max1_l/activation	glut_max2_l/activation	glut_max3_l/activation	iliacus_l/activation	psoas_l/activation	quad_fem_l/activation	gem_l/activation	peri_l/activation	rect_fem_l/activation	vas_med_l/activation	vas_int_l/activation	vas_lat_l/activation	med_gas_l/activation	lat_gas_l/activation	soleus_l/activation	tib_post_l/activation	flex_dig_l/activation	flex_hal_l/activation	tib_ant_l/activation	per_brev_l/activation	per_long_l/activation	per_tert_l/activation	ext_dig_l/activation	ext_hal_l/activation	ercspn_l/activation	intobl_l/activation	extobl_l/activation	glut_med1_r/activation	glut_med2_r/activation	glut_med3_r/activation	glut_min1_r/activation	glut_min2_r/activation	glut_min3_r/activation	semimem_r/activation	semiten_r/activation	bifemlh_r/activation	bifemsh_r/activation	sar_r/activation	add_long_r/activation	add_brev_r/activation	add_mag1_r/activation	add_mag2_r/activation	add_mag3_r/activation	tfl_r/activation	pect_r/activation	grac_r/activation	glut_max1_r/activation	glut_max2_r/activation	glut_max3_r/activation	iliacus_r/activation	psoas_r/activation	quad_fem_r/activation	gem_r/activation	peri_r/activation	rect_fem_r/activation	vas_med_r/activation	vas_int_r/activation	vas_lat_r/activation	med_gas_r/activation	lat_gas_r/activation	soleus_r/activation	tib_post_r/activation	flex_dig_r/activation	flex_hal_r/activation	tib_ant_r/activation	per_brev_r/activation	per_long_r/activation	per_tert_r/activation	ext_dig_r/activation	ext_hal_r/activation	ercspn_r/activation	intobl_r/activation	extobl_r/activation	
          0.00000000	         -2.91256360	         -0.76951927	          1.79813698	          0.00000000	          0.90874234	         -0.00420027	        -10.33072842	          1.37438510	          1.18896939	         30.37095877	          1.41822176	         -8.09971283	        -22.40562601	        -16.62962453	          3.73015516	          8.10940377	         20.03119321	         15.00059667	          5.49013492	          4.26878826	         21.83956235	         11.39291488	         -4.32488283	          0.77839018	         -1.92284879	          4.43077127	        -13.69884296	         19.36837509	         -2.42741422	        -13.46543962	          8.20979289	         31.58552959	         26.12630287	         86.51662706	         86.51662706	          0.19326386	          0.05000042	          0.05000015	          0.40580057	          0.15238298	          0.05318423	          0.05000451	          0.05000050	          0.05000042	          0.05000096	          0.05842870	          0.05866445	          0.05000117	          0.05000166	          0.05000431	          0.05000172	          0.58662966	          0.06853667	          0.05000114	          0.05000353	          0.05000203	          0.05000134	          0.23835552	          0.50327920	          0.05000017	          0.05000043	          0.05000020	          0.65468808	          0.20189272	          0.20634554	          0.17108708	          0.38169787	          0.56269792	          0.11118467	          0.80732506	          0.68665466	          0.73772328	          0.05000005	          0.05875069	          0.11107460	          0.05000022	          0.05000021	          0.17462335	          0.05000019	          0.05000005	          0.05000092	          0.06880524	          0.05000070	          0.05865415	          0.05000041	          0.05000058	          0.05000359	          0.33369821	          0.06880644	          0.12340376	          0.06880615	          0.05865494	          0.06205649	          0.10033050	          0.09581235	          0.08071416	          0.22119456	          0.05000880	          0.05771917	          0.08622662	          0.05865592	          0.14185386	          0.22841715	          0.05000374	          0.06039583	          0.17438324	          0.05972478	          0.05628142	          0.05000020	          0.05000033	          0.05000032	          0.05000026	          0.11107528	          0.12947402	          0.05945479	          0.32037106	          0.05000110	          0.05000099	          0.56488939	          0.05158110	          0.06488099	          0.39712670	          0.72815363	          0.26447507	          0.05000085	          0.07481018	          0.10010465	
          0.01038493	         -2.91496761	         -0.92413428	          2.06140495	          0.01626503	          0.90670401	         -0.00371630	        -11.43708099	          1.02181598	          1.51790542	         30.40926131	          1.68166881	         -8.18533837	        -22.02802893	        -17.31704252	          2.59384282	          7.74934080	         19.88123292	         15.25372001	          5.04431430	          4.28554726	         23.51563717	         12.11136597	         -4.17928322	          1.00566152	         -2.05392076	          4.16865743	        -13.66976099	         19.36870682	         -2.90604948	        -13.44984322	          7.62243370	         32.64627312	         25.09494444	         86.51662706	         86.51662706	          0.16474892	          0.05000023	          0.05000007	          0.34592710	          0.12990001	          0.05000042	          0.05001153	          0.05000120	          0.05000068	          0.05000082	          0.05000150	          0.05000907	          0.12626117	          0.05000133	          0.05000757	          0.06880899	          0.54409980	          0.05842718	          0.05000087	          0.05000215	          0.05000143	          0.05000127	          0.20318750	          0.45114390	          0.05000007	          0.05000024	          0.05000034	          0.66345463	          0.19659253	          0.20051141	          0.17002294	          0.36962481	          0.57891291	          0.10189400	          0.68820847	          0.59940622	          0.62887663	          0.05000002	          0.05008259	          0.09468615	          0.05000017	          0.05000013	          0.14885859	          0.05000003	          0.05000065	          0.08071529	          0.05865409	          0.05865409	          0.05000065	          0.05865429	          0.05865425	          0.05865097	          0.28446283	          0.05865450	          0.10519622	          0.05865424	          0.05000180	          0.13029549	          0.08552949	          0.08167723	          0.06880718	          0.22504147	          0.05000046	          0.05000476	          0.07350473	          0.05000468	          0.15339307	          0.26072013	          0.09468146	          0.09468178	          0.41094474	          0.20980105	          0.12812938	          0.05000008	          0.05000011	          0.05000010	          0.05000008	          0.09468672	          0.11037085	          0.05782057	          0.37307350	          0.05865412	          0.05865401	          0.53149277	          0.05000141	          0.11555479	          0.46121605	          0.76576226	          0.28721445	          0.05000005	          0.06377235	          0.09391624	
          0.02076987	         -2.91621240	         -1.09609181	          2.31364874	          0.03282412	          0.90461871	         -0.00321153	        -12.50801451	          0.63690639	          1.82273469	         30.43376209	          1.89896022	         -8.25594463	        -21.69502976	        -18.71915956	          1.29150638	          7.14785407	         19.72172669	         15.44755070	          4.54108539	          4.27838304	         25.33724844	         12.84758982	         -4.01707676	          1.25092937	         -2.17640319	          3.81439462	        -13.62998219	         19.24028831	         -3.42298238	        -13.46011421	          7.19802673	         33.78179105	         24.10199081	         86.51662706	         86.51662706	          0.14044114	          0.05865438	          0.05865435	          0.29488746	          0.11073421	          0.05865523	          0.05000168	          0.05000023	          0.05000104	          0.05000008	          0.05000094	          0.22001783	          0.10763295	          0.06874826	          0.05865524	          0.05866121	          0.46382249	          0.05000087	          0.05000099	          0.05865586	          0.05865538	          0.05865556	          0.17320830	          0.41951326	          0.05865567	          0.05865515	          0.05865415	          0.59663444	          0.19706758	          0.19801094	          0.17458351	          0.33571889	          0.53172032	          0.11367976	          0.58666688	          0.51096738	          0.53608929	          0.05000167	          0.05000010	          0.08071572	          0.05000010	          0.05000004	          0.12689528	          0.05000079	          0.06941020	          0.06880623	          0.05000007	          0.05000015	          0.06814890	          0.05000025	          0.05000025	          0.05000024	          0.24249183	          0.05000037	          0.08967508	          0.05000015	          0.06527626	          0.11107203	          0.15122620	          0.11101383	          0.05865593	          0.26494075	          0.06334071	          0.08084761	          0.06265965	          0.05000096	          0.19606149	          0.30163807	          0.08071502	          0.08071497	          0.54606000	          0.17884634	          0.10922719	          0.08071521	          0.13460820	          0.12780265	          0.14106740	          0.08071620	          0.09408623	          0.06880606	          0.31802884	          0.05000011	          0.05000011	          0.68293426	          0.15315568	          0.09850531	          0.68163151	          0.81155679	          0.35701957	          0.05000003	          0.05436308	          0.08005942	
          0.03115480	         -2.91739491	         -1.29726526	          2.56306059	          0.04965436	          0.90259071	         -0.00271552	        -13.53466136	          0.21772635	          2.12413333	         30.32667675	          2.07084695	         -8.20859599	        -21.40671281	        -20.35867198	         -0.22514551	          6.68074076	         19.53110905	         15.61349074	          4.04497149	          4.40940669	         27.25071993	         13.47776067	         -3.83812408	          1.52667220	         -2.29307558	          3.38601070	        -13.58129094	         19.06138139	         -3.97553320	        -13.49226875	          6.90823593	         34.96096966	         23.14364338	         86.51662706	         86.51662706	          0.12645401	          0.05000033	          0.05000024	          0.25137911	          0.09439641	          0.05000122	          0.05864904	          0.05222410	          0.05000093	          0.05865484	          0.05865535	          0.18755721	          0.11405708	          0.05860518	          0.05000228	          0.05000644	          0.54328189	          0.15069362	          0.05865366	          0.05000263	          0.05000170	          0.05000161	          0.24262238	          0.56051176	          0.05000137	          0.05000099	          0.05000017	          0.52485131	          0.16799138	          0.16879557	          0.14882473	          0.33024715	          0.57211263	          0.13424984	          0.50010722	          0.43557690	          0.45699217	          0.21213685	          0.06445403	          0.06880656	          0.05000098	          0.05000041	          0.10817255	          0.06086888	          0.05916909	          0.05865427	          0.33352731	          0.31086622	          0.35471038	          0.33937518	          0.23141405	          0.25869450	          0.20671347	          0.16736260	          0.12694047	          0.12058372	          0.08071435	          0.09468407	          0.12891368	          0.09463448	          0.05000179	          0.30345402	          0.05399527	          0.06891997	          0.25240020	          0.05000117	          0.26505504	          0.34770615	          0.06880625	          0.06880610	          0.46549181	          0.15245891	          0.15333693	          0.06880610	          0.11474746	          0.10894604	          0.12025364	          0.06880695	          0.08020430	          0.05865408	          0.46940918	          0.42266468	          0.17956553	          0.69231863	          0.13055850	          0.19687187	          0.58106040	          0.85920163	          0.30911936	          0.05000061	          0.09042669	          0.06824709	
